<svg xmlns="http://www.w3.org/2000/svg" aria-hidden="true" style="position:absolute;width:0;height:0;overflow:hidden"><defs>
<symbol id="icon-Logo" viewBox="0 0 39 32"><path  d="m22.372 9.661-.749-.572a.57.57 0 0 0-.8.08l-10.36 11.905.16.177 2.566-2.367a.393.393 0 0 1-.239-.445c.018-.09.068-.172.14-.229a.403.403 0 0 1 .485-.011.391.391 0 0 1 .141.198l3.383-3.139a.29.29 0 0 1 .366 0l.171.126a.285.285 0 0 0 .383-.045l4.423-4.963a.47.47 0 0 0 .067-.565.473.473 0 0 0-.136-.149z"/><path d="M27.24 13.012a23.13 23.13 0 0 1-7.497 3.517 40.553 40.553 0 0 1-8.154 1.212c.055.406.155.805.297 1.189 1.554 1.407 13.257-.995 15.543-3.774.486-.578-.189-2.144-.189-2.144zm-13.897 5.872a.387.387 0 0 1-.359-.24.393.393 0 0 1 .084-.424.39.39 0 0 1 .598.059.395.395 0 0 1-.046.493.375.375 0 0 1-.277.112zM2.286 12.188l.091-.395 1.486.337c.123.226.198.475.223.732.028.272.011.546-.051.812a2.15 2.15 0 0 1-.491.995 1.96 1.96 0 0 1-.88.572c-.35.108-.723.122-1.08.04a1.998 1.998 0 0 1-.954-.503 1.892 1.892 0 0 1-.543-.898 2.156 2.156 0 0 1 0-1.144c.061-.28.172-.547.326-.789.146-.22.342-.402.571-.532l.206.314a1.626 1.626 0 0 0-.754 1.11c-.071.296-.065.605.017.898.077.278.229.53.44.726.217.21.488.354.783.417.286.08.588.08.874 0 .274-.09.52-.25.714-.463.2-.23.337-.508.4-.806.094-.362.07-.745-.069-1.092l-1.309-.332zM5.52 8.592 4.189 10.37l.571 1.024-.263.354-2.114-3.86.246-.337 4.303.926-.269.354-1.143-.24zM5.143 8.5l-2.286-.515L4 10.038 5.143 8.5zM5.143 4.904l.343-.257 2.177 2.916 1.794-1.344.217.292-2.131 1.595-2.4-3.202zM8.743 2.519l.383-.172 1.509 3.305 2.04-.926.149.332-2.423 1.104L8.744 2.52zM16.274 3.834l.086.36-2.754.646-.914-3.9 2.674-.623.08.355-2.286.532.326 1.384 2.011-.475.086.355-2.017.469.343 1.447 2.366-.549zM20.2 3.977l-.954-1.258a2.847 2.847 0 0 1-.32 0l-1.074.034.04 1.269h-.423L17.338.019l1.52-.006a1.8 1.8 0 0 1 1.211.326 1.252 1.252 0 0 1 .469.995c.017.283-.057.563-.211.801a1.329 1.329 0 0 1-.663.486l1 1.338-.463.017zm-.4-1.881a.91.91 0 0 0 .291-.75.926.926 0 0 0-.337-.732 1.385 1.385 0 0 0-.897-.234l-1.086.04.069 2.001 1.063-.034c.324.012.642-.091.897-.292zM23.309 2.914l-.206 1.367-.417-.063.211-1.344L21.714.015l.446.069 1.011 2.436L24.885.502l.4.086-1.977 2.327zM28.874 2.674l.497.646-.217.172-.497-.663-.314.749-.24-.103.32-.749-.823.109v-.274l.811-.091-.503-.646.223-.172.44.652.309-.755.246.103-.291.766.823-.114v.28l-.783.091zM30.783 7.282a1.587 1.587 0 0 1-.246-.692l.337-.149c.025.227.099.445.217.64.128.219.294.413.491.572.204.195.464.321.743.36a.623.623 0 0 0 .537-.223.509.509 0 0 0 .131-.389 1.058 1.058 0 0 0-.137-.394 5.873 5.873 0 0 0-.349-.509 5.108 5.108 0 0 1-.411-.629 1.152 1.152 0 0 1-.149-.537c0-.212.079-.416.223-.572.125-.151.289-.264.474-.326.207-.06.427-.06.634 0 .267.087.514.227.726.412.176.146.332.316.463.503.121.174.212.367.269.572l-.326.172a2.026 2.026 0 0 0-.251-.537 2.047 2.047 0 0 0-.383-.395 1.272 1.272 0 0 0-.737-.349.61.61 0 0 0-.537.234.493.493 0 0 0-.131.389c.013.144.06.283.137.406.08.131.194.303.349.509.153.195.291.401.411.618.095.164.148.348.154.537a.842.842 0 0 1-.223.572 1.02 1.02 0 0 1-.48.326 1.104 1.104 0 0 1-.634 0 2.11 2.11 0 0 1-.731-.412 2.591 2.591 0 0 1-.571-.709zM36.531 8.117l-.806-1.144.297-.212 1.857 2.653-.297.212-.806-1.144-2.983 2.087-.24-.349 2.977-2.104zM35.251 12.817c.102-.346.3-.655.571-.892.265-.238.589-.402.937-.475a2.06 2.06 0 0 1 1.074.04c.336.111.638.308.874.572.246.283.414.626.486.995.095.362.095.742 0 1.104a1.965 1.965 0 0 1-.571.892 2.123 2.123 0 0 1-2.04.446 1.91 1.91 0 0 1-.874-.572 2.16 2.16 0 0 1-.486-.989 2.196 2.196 0 0 1 .029-1.121zM36 14.636c.191.217.438.378.714.463a1.765 1.765 0 0 0 1.657-.366c.211-.194.367-.441.451-.715a1.849 1.849 0 0 0-.371-1.681 1.626 1.626 0 0 0-.737-.463 1.705 1.705 0 0 0-.88 0c-.291.056-.56.193-.777.395a1.591 1.591 0 0 0-.451.72c-.078.29-.078.596 0 .886.063.284.199.546.394.761zM34.817 19.456l1.48-.572c0-.103.034-.206.063-.314l.28-1.035-1.211-.314.109-.406 3.863 1.035-.389 1.447a1.82 1.82 0 0 1-.663 1.064 1.245 1.245 0 0 1-1.086.16 1.238 1.238 0 0 1-.977-1.206l-1.577.572.109-.429zm1.914.16a1.034 1.034 0 0 0 .635.498 1.018 1.018 0 0 0 .799-.115c.252-.203.424-.488.486-.806l.274-1.029-1.937-.52-.274 1.029c-.105.307-.099.641.017.943zM32.766 23.138l-.291-.223 1.714-2.259 3.189 2.419-1.657 2.19-.291-.223 1.4-1.847-1.143-.863-1.251 1.652-.286-.217 1.28-1.652-1.183-.898-1.48 1.921zM31.428 27.696l-.817.046v-.274l.817-.006-.44-.68.223-.143.434.686.354-.766.246.131-.389.72.817-.046v.28h-.829l.44.68-.223.143-.434-.686-.377.743-.24-.137.417-.692zM24 27.238l.691.383a1.77 1.77 0 0 1 1.143-.903c.227-.071.466-.096.703-.074.206.016.403.087.571.206a.908.908 0 0 1 .32.457c.069.226.057.468-.034.686a2.862 2.862 0 0 1-.571.795c.188.101.363.226.52.372a.987.987 0 0 1 .234.395.761.761 0 0 1-.149.669c-.153.22-.38.377-.64.44a.996.996 0 0 1-.709 0 .713.713 0 0 1-.412-.486.776.776 0 0 1 .04-.572c.131-.26.303-.497.509-.703l-1.377-.766a2.704 2.704 0 0 0-.034.818h-.349a2.746 2.746 0 0 1 .114-.995l-.72-.4.149-.32zm.994.572 1.514.841a2.4 2.4 0 0 0 .486-.658.725.725 0 0 0 0-.515.618.618 0 0 0-.4-.429 1.143 1.143 0 0 0-.731 0 1.36 1.36 0 0 0-.891.744l.023.017zm2.149 2.287a.523.523 0 0 0 .046-.423.7.7 0 0 0-.183-.297 2.452 2.452 0 0 0-.474-.314 2.938 2.938 0 0 0-.451.572.576.576 0 0 0-.046.423.482.482 0 0 0 .251.303.637.637 0 0 0 .451 0 .68.68 0 0 0 .383-.269l.023.006zM17.034 31.647l.08-4.003h.406l-.063 3.202 1.623-2.665h.2l1.52 2.71.057-3.185h.406l-.074 4.003h-.349l-1.68-2.991-1.777 2.933-.349-.006zM15.046 27.461a1.951 1.951 0 0 1 .52 1.979 2.03 2.03 0 0 1-.543.932 1.92 1.92 0 0 1-.92.503 2.217 2.217 0 0 1-1.109-.034 2.155 2.155 0 0 1-.96-.52 1.925 1.925 0 0 1-.531-.903 2.111 2.111 0 0 1 .572-2.012c.25-.249.561-.427.903-.515a2.205 2.205 0 0 1 1.103.034c.363.092.696.277.966.538zm-1.949-.2a1.52 1.52 0 0 0-.737.412c-.21.21-.361.473-.434.761-.08.286-.08.589 0 .875.067.278.212.532.417.732.215.21.481.362.771.44.291.074.595.074.886 0 .28-.069.536-.211.743-.412.209-.211.359-.473.434-.76.08-.288.08-.593 0-.881a1.607 1.607 0 0 0-.423-.732 1.711 1.711 0 0 0-.777-.435 1.643 1.643 0 0 0-.88 0zM8.771 24.602l.154 1.572c.098.042.193.09.286.143l.931.538.629-1.109.371.212-2 3.448-1.303-.749a1.819 1.819 0 0 1-.857-.915 1.257 1.257 0 0 1 .126-1.087c.133-.251.343-.451.6-.572.261-.108.549-.13.823-.063l-.166-1.681.406.263zm-.651 1.807a1.036 1.036 0 0 0-.642.487 1.021 1.021 0 0 0-.095.8c.134.296.366.536.657.68l.92.532 1-1.715-.92-.532a1.413 1.413 0 0 0-.92-.28v.029zM5.389 21.92l.257-.257 1.971 2.03-2.857 2.79-1.903-1.967.263-.257 1.617 1.664.977-.989-1.417-1.475.274-.263 1.446 1.487 1.063-1.035-1.691-1.727zM1.143 19.673l.137-.789.269.04-.154.812.76-.28.091.252-.771.263.634.538-.183.206-.611-.572-.143.812-.274-.051.16-.812-.766.274-.086-.223.766-.269-.634-.532.189-.206.617.538z"/></symbol>
<symbol id="icon-mail" viewBox="0 0 32 32"><path fill="none" stroke="#9da4bd" stroke-linecap="round" stroke-linejoin="round" stroke-width="1.333" d="M6.4 6.667h19.2c1.32 0 2.4 1.05 2.4 2.333v14c0 1.283-1.08 2.333-2.4 2.333H6.4C5.08 25.333 4 24.283 4 23V9c0-1.283 1.08-2.333 2.4-2.333z" style="stroke:var(--color2, #9da4bd)"/><path fill="none" stroke="#9da4bd" stroke-linecap="round" stroke-linejoin="round" stroke-width="1.333" d="m26.667 9.333-10.667 8-10.667-8" style="stroke:var(--color2, #9da4bd)"/></symbol>
<symbol id="icon-map-pin" viewBox="0 0 32 32"><path fill="none" stroke="#9da4bd" stroke-linecap="round" stroke-linejoin="round" stroke-width="1.333" d="M26.667 13.818C26.667 21.454 16 28 16 28S5.333 21.455 5.333 13.818C5.333 8.396 10.109 4 16 4s10.667 4.396 10.667 9.818v0z" style="stroke:var(--color2, #9da4bd)"/><path fill="none" stroke="#9da4bd" stroke-linecap="round" stroke-linejoin="round" stroke-width="1.333" d="M16 18.667a4 4 0 1 0 0-8 4 4 0 0 0 0 8z" style="stroke:var(--color2, #9da4bd)"/></symbol>
<symbol id="icon-menu" viewBox="0 0 48 32"><path fill="#fff" d="M0 5.333V0h48v5.333H0zm0 13.334h48v-5.333H0v5.333zM0 32h48v-5.333H0V32z" style="fill:var(--color1, #fff)"/></symbol>
<symbol id="icon-phone" viewBox="0 0 32 32"><path fill="none" stroke="#9da4bd" stroke-linecap="round" stroke-linejoin="round" stroke-width="1.333" d="M26.666 21.337v3.218a2.146 2.146 0 0 1-2.338 2.145 21.239 21.239 0 0 1-9.257-3.293 20.914 20.914 0 0 1-6.436-6.436 21.221 21.221 0 0 1-3.293-9.3 2.144 2.144 0 0 1 2.134-2.338h3.218a2.144 2.144 0 0 1 2.145 1.845c.136 1.03.388 2.041.751 3.014a2.144 2.144 0 0 1-.483 2.263l-1.362 1.362a17.162 17.162 0 0 0 6.436 6.436l1.362-1.362a2.146 2.146 0 0 1 2.263-.483c.973.363 1.984.615 3.014.751a2.144 2.144 0 0 1 1.845 2.177z" style="stroke:var(--color2, #9da4bd)"/></symbol>
<symbol id="icon-twitter" viewBox="0 0 32 32">
<path d="M32 6.078c-1.1 0.494-2.376 0.858-3.712 1.029l-0.068 0.007c1.36-0.817 2.381-2.078 2.873-3.58l0.013-0.046c-1.197 0.723-2.591 1.274-4.076 1.574l-0.084 0.014c-1.2-1.279-2.901-2.076-4.788-2.076-3.623 0-6.56 2.937-6.56 6.56v0c0 0.52 0.044 1.020 0.152 1.496-5.468-0.276-10.278-2.878-13.495-6.828l-0.027-0.034c-0.563 0.949-0.895 2.091-0.895 3.311 0 2.264 1.145 4.261 2.888 5.442l0.023 0.015c-1.092-0.030-2.109-0.325-2.997-0.823l0.033 0.017v0.072c0.004 3.164 2.237 5.806 5.213 6.438l0.043 0.008c-0.501 0.137-1.075 0.216-1.669 0.216-0.018 0-0.036-0-0.054-0l0.003 0c-0.031 0.001-0.067 0.001-0.103 0.001-0.403 0-0.796-0.041-1.176-0.119l0.037 0.006c0.873 2.624 3.273 4.496 6.121 4.57l0.009 0c-2.214 1.744-5.044 2.798-8.12 2.798-0.005 0-0.010 0-0.015 0h0.001c-0.538 0-1.054-0.024-1.57-0.090 2.826 1.846 6.287 2.944 10.004 2.944 0.021 0 0.042-0 0.063-0h-0.003c12.072 0 18.672-10 18.672-18.668 0-0.29-0.010-0.57-0.024-0.848 1.299-0.937 2.391-2.066 3.258-3.359l0.030-0.047z"></path>
</symbol>
<symbol id="icon-linkedin" viewBox="0 0 32 32">
<path d="M31.992 32h0.008v-11.74c0-5.74-1.236-10.164-7.948-10.164-3.226 0-5.392 1.772-6.276 3.45h-0.094v-2.912h-6.362v21.366h6.628v-10.58c0-2.784 0.528-5.476 3.976-5.476 3.4 0 3.45 3.178 3.45 5.656v10.4h6.62zM0.528 10.636h6.634v21.364h-6.634v-21.364zM3.842 0c-2.12 0-3.84 1.72-3.84 3.84s1.72 3.88 3.84 3.88c2.122 0 3.844-1.76 3.844-3.88s-1.726-3.84-3.846-3.84z"></path>
</symbol>
<symbol id="icon-facebook" viewBox="0 0 32 32">
<path d="M21.33 5.314h2.92v-5.088c-1.238-0.144-2.672-0.226-4.125-0.226-0.046 0-0.092 0-0.138 0l0.007-0c-4.212 0-7.094 2.65-7.094 7.52v4.48h-4.65v5.688h4.648v14.312h5.698v-14.31h4.46l0.708-5.69h-5.17v-3.92c0.002-1.644 0.444-2.768 2.736-2.768z"></path>
</symbol>
<symbol id="icon-instagram" viewBox="0 0 32 32">
<path  d="M31.968 9.408c-0.074-1.7-0.35-2.87-0.744-3.882-0.424-1.112-1.053-2.060-1.849-2.839l-0.001-0.001c-0.78-0.791-1.724-1.417-2.778-1.824l-0.054-0.018c-1.020-0.394-2.18-0.67-3.88-0.744-1.716-0.080-2.262-0.1-6.602-0.1-4.346 0-4.89 0.020-6.596 0.094-1.7 0.074-2.868 0.35-3.88 0.744-1.112 0.424-2.060 1.053-2.839 1.849l-0.001 0.001c-0.792 0.78-1.419 1.724-1.826 2.778l-0.018 0.054c-0.394 1.020-0.668 2.18-0.744 3.88-0.080 1.714-0.1 2.26-0.1 6.602 0 4.346 0.020 4.89 0.094 6.596 0.074 1.7 0.35 2.87 0.744 3.882 0.406 1.076 1.038 2.038 1.85 2.838 0.8 0.812 1.77 1.444 2.832 1.844 1.020 0.394 2.18 0.67 3.882 0.744 1.706 0.076 2.25 0.094 6.596 0.094 4.344 0 4.888-0.020 6.594-0.094 1.7-0.074 2.87-0.35 3.882-0.744 2.157-0.85 3.832-2.525 4.663-4.627l0.019-0.055c0.394-1.020 0.67-2.18 0.744-3.882 0.076-1.706 0.094-2.25 0.094-6.596 0-4.344-0.006-4.888-0.080-6.594zM29.088 22.472c-0.070 1.564-0.332 2.408-0.552 2.97-0.551 1.4-1.638 2.488-3.002 3.027l-0.036 0.013c-0.562 0.218-1.412 0.48-2.968 0.548-1.688 0.076-2.194 0.094-6.464 0.094s-4.782-0.020-6.464-0.094c-1.564-0.068-2.408-0.33-2.97-0.55-0.721-0.269-1.335-0.676-1.837-1.193l-0.001-0.001c-0.516-0.504-0.923-1.118-1.183-1.804l-0.011-0.034c-0.22-0.562-0.48-1.412-0.55-2.968-0.074-1.688-0.094-2.196-0.094-6.464 0-4.27 0.020-4.782 0.094-6.464 0.070-1.564 0.332-2.408 0.55-2.97 0.256-0.694 0.664-1.324 1.2-1.838 0.52-0.532 1.144-0.938 1.84-1.194 0.56-0.22 1.412-0.48 2.968-0.55 1.688-0.074 2.194-0.094 6.464-0.094 4.276 0 4.78 0.020 6.464 0.094 1.562 0.070 2.406 0.332 2.968 0.55 0.694 0.256 1.326 0.662 1.84 1.194 0.53 0.52 0.936 1.144 1.192 1.84 0.22 0.56 0.482 1.41 0.55 2.968 0.076 1.688 0.094 2.194 0.094 6.464s-0.018 4.77-0.092 6.456z"></path>
<path d="M16.060 7.782c-4.462 0.102-8.041 3.743-8.041 8.22s3.578 8.118 8.031 8.22l0.009 0c4.462-0.102 8.041-3.743 8.041-8.22s-3.578-8.118-8.031-8.22l-0.009-0zM16.060 21.336c-2.946 0-5.334-2.388-5.334-5.334s2.388-5.334 5.334-5.334v0c2.946 0 5.334 2.388 5.334 5.334s-2.388 5.334-5.334 5.334v0zM26.524 7.458c0 1.060-0.86 1.92-1.92 1.92s-1.92-0.86-1.92-1.92v0c0-1.060 0.86-1.92 1.92-1.92s1.92 0.86 1.92 1.92v0z"></path>
</symbol>

</defs></svg>